<mxfile host="Electron" modified="2023-04-10T00:17:04.654Z" agent="Mozilla/5.0 (Windows NT 10.0; Win64; x64) AppleWebKit/537.36 (KHTML, like Gecko) draw.io/21.1.2 Chrome/106.0.5249.199 Electron/21.4.3 Safari/537.36" etag="AhcoO49s-cSnDRq2BTRY" version="21.1.2" type="device">
  <diagram name="PÃ¡gina-1" id="B7GhUHJkOe92NP1iBFbK">
    <mxGraphModel dx="1434" dy="806" grid="1" gridSize="10" guides="1" tooltips="1" connect="1" arrows="1" fold="1" page="1" pageScale="1" pageWidth="827" pageHeight="1169" math="0" shadow="0">
      <root>
        <mxCell id="0" />
        <mxCell id="1" parent="0" />
        <mxCell id="6yVP0xscNu6BQEY-c9Ur-9" value="Calendar" style="swimlane;fontStyle=1;align=center;verticalAlign=top;childLayout=stackLayout;horizontal=1;startSize=26;horizontalStack=0;resizeParent=1;resizeParentMax=0;resizeLast=0;collapsible=1;marginBottom=0;" parent="1" vertex="1">
          <mxGeometry x="311" y="23" width="186" height="216" as="geometry" />
        </mxCell>
        <mxCell id="6yVP0xscNu6BQEY-c9Ur-14" value="-Appointments[]: Appointment" style="text;strokeColor=none;fillColor=none;align=left;verticalAlign=top;spacingLeft=4;spacingRight=4;overflow=hidden;rotatable=0;points=[[0,0.5],[1,0.5]];portConstraint=eastwest;" parent="6yVP0xscNu6BQEY-c9Ur-9" vertex="1">
          <mxGeometry y="26" width="186" height="26" as="geometry" />
        </mxCell>
        <mxCell id="pq_9ftzxwfjxtikR4yIr-13" value="-Alarms[]: Alarm" style="text;strokeColor=none;fillColor=none;align=left;verticalAlign=top;spacingLeft=4;spacingRight=4;overflow=hidden;rotatable=0;points=[[0,0.5],[1,0.5]];portConstraint=eastwest;" parent="6yVP0xscNu6BQEY-c9Ur-9" vertex="1">
          <mxGeometry y="52" width="186" height="26" as="geometry" />
        </mxCell>
        <mxCell id="6yVP0xscNu6BQEY-c9Ur-11" value="" style="line;strokeWidth=1;fillColor=none;align=left;verticalAlign=middle;spacingTop=-1;spacingLeft=3;spacingRight=3;rotatable=0;labelPosition=right;points=[];portConstraint=eastwest;strokeColor=inherit;" parent="6yVP0xscNu6BQEY-c9Ur-9" vertex="1">
          <mxGeometry y="78" width="186" height="8" as="geometry" />
        </mxCell>
        <mxCell id="6yVP0xscNu6BQEY-c9Ur-13" value="+Calendar()" style="text;strokeColor=none;fillColor=none;align=left;verticalAlign=top;spacingLeft=4;spacingRight=4;overflow=hidden;rotatable=0;points=[[0,0.5],[1,0.5]];portConstraint=eastwest;" parent="6yVP0xscNu6BQEY-c9Ur-9" vertex="1">
          <mxGeometry y="86" width="186" height="26" as="geometry" />
        </mxCell>
        <mxCell id="6yVP0xscNu6BQEY-c9Ur-15" value="+addAppointment() void" style="text;strokeColor=none;fillColor=none;align=left;verticalAlign=top;spacingLeft=4;spacingRight=4;overflow=hidden;rotatable=0;points=[[0,0.5],[1,0.5]];portConstraint=eastwest;" parent="6yVP0xscNu6BQEY-c9Ur-9" vertex="1">
          <mxGeometry y="112" width="186" height="26" as="geometry" />
        </mxCell>
        <mxCell id="6yVP0xscNu6BQEY-c9Ur-145" value="+getAppointment() Appointment" style="text;strokeColor=none;fillColor=none;align=left;verticalAlign=top;spacingLeft=4;spacingRight=4;overflow=hidden;rotatable=0;points=[[0,0.5],[1,0.5]];portConstraint=eastwest;" parent="6yVP0xscNu6BQEY-c9Ur-9" vertex="1">
          <mxGeometry y="138" width="186" height="26" as="geometry" />
        </mxCell>
        <mxCell id="6yVP0xscNu6BQEY-c9Ur-19" value="+destroyAppointment() bool" style="text;strokeColor=none;fillColor=none;align=left;verticalAlign=top;spacingLeft=4;spacingRight=4;overflow=hidden;rotatable=0;points=[[0,0.5],[1,0.5]];portConstraint=eastwest;" parent="6yVP0xscNu6BQEY-c9Ur-9" vertex="1">
          <mxGeometry y="164" width="186" height="26" as="geometry" />
        </mxCell>
        <mxCell id="6yVP0xscNu6BQEY-c9Ur-16" value="+editAppointment() bool" style="text;strokeColor=none;fillColor=none;align=left;verticalAlign=top;spacingLeft=4;spacingRight=4;overflow=hidden;rotatable=0;points=[[0,0.5],[1,0.5]];portConstraint=eastwest;" parent="6yVP0xscNu6BQEY-c9Ur-9" vertex="1">
          <mxGeometry y="190" width="186" height="26" as="geometry" />
        </mxCell>
        <mxCell id="pq_9ftzxwfjxtikR4yIr-11" value="" style="edgeStyle=orthogonalEdgeStyle;rounded=0;orthogonalLoop=1;jettySize=auto;html=1;" parent="1" source="6yVP0xscNu6BQEY-c9Ur-20" target="pq_9ftzxwfjxtikR4yIr-10" edge="1">
          <mxGeometry relative="1" as="geometry">
            <Array as="points">
              <mxPoint x="314" y="400" />
              <mxPoint x="314" y="430" />
            </Array>
          </mxGeometry>
        </mxCell>
        <mxCell id="6yVP0xscNu6BQEY-c9Ur-20" value="Event" style="swimlane;fontStyle=1;align=center;verticalAlign=top;childLayout=stackLayout;horizontal=1;startSize=26;horizontalStack=0;resizeParent=1;resizeParentMax=0;resizeLast=0;collapsible=1;marginBottom=0;" parent="1" vertex="1">
          <mxGeometry x="144" y="317" width="160" height="164" as="geometry" />
        </mxCell>
        <mxCell id="pq_9ftzxwfjxtikR4yIr-17" value="-repetitions: int" style="text;strokeColor=none;fillColor=none;align=left;verticalAlign=top;spacingLeft=4;spacingRight=4;overflow=hidden;rotatable=0;points=[[0,0.5],[1,0.5]];portConstraint=eastwest;" parent="6yVP0xscNu6BQEY-c9Ur-20" vertex="1">
          <mxGeometry y="26" width="160" height="26" as="geometry" />
        </mxCell>
        <mxCell id="pq_9ftzxwfjxtikR4yIr-18" value="-originalEventId: int" style="text;strokeColor=none;fillColor=none;align=left;verticalAlign=top;spacingLeft=4;spacingRight=4;overflow=hidden;rotatable=0;points=[[0,0.5],[1,0.5]];portConstraint=eastwest;" parent="6yVP0xscNu6BQEY-c9Ur-20" vertex="1">
          <mxGeometry y="52" width="160" height="26" as="geometry" />
        </mxCell>
        <mxCell id="6yVP0xscNu6BQEY-c9Ur-57" value="-duration: Duration" style="text;strokeColor=none;fillColor=none;align=left;verticalAlign=top;spacingLeft=4;spacingRight=4;overflow=hidden;rotatable=0;points=[[0,0.5],[1,0.5]];portConstraint=eastwest;" parent="6yVP0xscNu6BQEY-c9Ur-20" vertex="1">
          <mxGeometry y="78" width="160" height="26" as="geometry" />
        </mxCell>
        <mxCell id="6yVP0xscNu6BQEY-c9Ur-23" value="" style="line;strokeWidth=1;fillColor=none;align=left;verticalAlign=middle;spacingTop=-1;spacingLeft=3;spacingRight=3;rotatable=0;labelPosition=right;points=[];portConstraint=eastwest;strokeColor=inherit;" parent="6yVP0xscNu6BQEY-c9Ur-20" vertex="1">
          <mxGeometry y="104" width="160" height="8" as="geometry" />
        </mxCell>
        <mxCell id="6yVP0xscNu6BQEY-c9Ur-24" value="+Event()" style="text;strokeColor=none;fillColor=none;align=left;verticalAlign=top;spacingLeft=4;spacingRight=4;overflow=hidden;rotatable=0;points=[[0,0.5],[1,0.5]];portConstraint=eastwest;" parent="6yVP0xscNu6BQEY-c9Ur-20" vertex="1">
          <mxGeometry y="112" width="160" height="26" as="geometry" />
        </mxCell>
        <mxCell id="6yVP0xscNu6BQEY-c9Ur-27" value="+setDuration() void" style="text;strokeColor=none;fillColor=none;align=left;verticalAlign=top;spacingLeft=4;spacingRight=4;overflow=hidden;rotatable=0;points=[[0,0.5],[1,0.5]];portConstraint=eastwest;" parent="6yVP0xscNu6BQEY-c9Ur-20" vertex="1">
          <mxGeometry y="138" width="160" height="26" as="geometry" />
        </mxCell>
        <mxCell id="pq_9ftzxwfjxtikR4yIr-12" value="" style="edgeStyle=orthogonalEdgeStyle;rounded=0;orthogonalLoop=1;jettySize=auto;html=1;" parent="1" source="6yVP0xscNu6BQEY-c9Ur-45" target="pq_9ftzxwfjxtikR4yIr-9" edge="1">
          <mxGeometry relative="1" as="geometry">
            <Array as="points">
              <mxPoint x="504" y="400" />
              <mxPoint x="504" y="430" />
            </Array>
          </mxGeometry>
        </mxCell>
        <mxCell id="6yVP0xscNu6BQEY-c9Ur-45" value="Tasks" style="swimlane;fontStyle=1;align=center;verticalAlign=top;childLayout=stackLayout;horizontal=1;startSize=26;horizontalStack=0;resizeParent=1;resizeParentMax=0;resizeLast=0;collapsible=1;marginBottom=0;" parent="1" vertex="1">
          <mxGeometry x="514" y="318" width="160" height="138" as="geometry" />
        </mxCell>
        <mxCell id="6yVP0xscNu6BQEY-c9Ur-66" value="-expiration: Expiration" style="text;strokeColor=none;fillColor=none;align=left;verticalAlign=top;spacingLeft=4;spacingRight=4;overflow=hidden;rotatable=0;points=[[0,0.5],[1,0.5]];portConstraint=eastwest;" parent="6yVP0xscNu6BQEY-c9Ur-45" vertex="1">
          <mxGeometry y="26" width="160" height="26" as="geometry" />
        </mxCell>
        <mxCell id="6yVP0xscNu6BQEY-c9Ur-48" value="" style="line;strokeWidth=1;fillColor=none;align=left;verticalAlign=middle;spacingTop=-1;spacingLeft=3;spacingRight=3;rotatable=0;labelPosition=right;points=[];portConstraint=eastwest;strokeColor=inherit;" parent="6yVP0xscNu6BQEY-c9Ur-45" vertex="1">
          <mxGeometry y="52" width="160" height="8" as="geometry" />
        </mxCell>
        <mxCell id="6yVP0xscNu6BQEY-c9Ur-49" value="+Task()" style="text;strokeColor=none;fillColor=none;align=left;verticalAlign=top;spacingLeft=4;spacingRight=4;overflow=hidden;rotatable=0;points=[[0,0.5],[1,0.5]];portConstraint=eastwest;" parent="6yVP0xscNu6BQEY-c9Ur-45" vertex="1">
          <mxGeometry y="60" width="160" height="26" as="geometry" />
        </mxCell>
        <mxCell id="6yVP0xscNu6BQEY-c9Ur-70" value="+editExpiration() void" style="text;strokeColor=none;fillColor=none;align=left;verticalAlign=top;spacingLeft=4;spacingRight=4;overflow=hidden;rotatable=0;points=[[0,0.5],[1,0.5]];portConstraint=eastwest;" parent="6yVP0xscNu6BQEY-c9Ur-45" vertex="1">
          <mxGeometry y="86" width="160" height="26" as="geometry" />
        </mxCell>
        <mxCell id="6yVP0xscNu6BQEY-c9Ur-72" value="+destroyExpiration() void" style="text;strokeColor=none;fillColor=none;align=left;verticalAlign=top;spacingLeft=4;spacingRight=4;overflow=hidden;rotatable=0;points=[[0,0.5],[1,0.5]];portConstraint=eastwest;" parent="6yVP0xscNu6BQEY-c9Ur-45" vertex="1">
          <mxGeometry y="112" width="160" height="26" as="geometry" />
        </mxCell>
        <mxCell id="csybnIF6_wFdnDBGwbe4-1" value="" style="edgeStyle=orthogonalEdgeStyle;rounded=0;orthogonalLoop=1;jettySize=auto;html=1;" parent="1" source="6yVP0xscNu6BQEY-c9Ur-73" target="6yVP0xscNu6BQEY-c9Ur-16" edge="1">
          <mxGeometry relative="1" as="geometry">
            <Array as="points">
              <mxPoint x="408" y="260" />
              <mxPoint x="408" y="260" />
            </Array>
          </mxGeometry>
        </mxCell>
        <mxCell id="6yVP0xscNu6BQEY-c9Ur-73" value="Appointment" style="swimlane;fontStyle=1;align=center;verticalAlign=top;childLayout=stackLayout;horizontal=1;startSize=26;horizontalStack=0;resizeParent=1;resizeParentMax=0;resizeLast=0;collapsible=1;marginBottom=0;" parent="1" vertex="1">
          <mxGeometry x="328" y="300" width="160" height="294" as="geometry" />
        </mxCell>
        <mxCell id="6yVP0xscNu6BQEY-c9Ur-74" value="-id: int" style="text;strokeColor=none;fillColor=none;align=left;verticalAlign=top;spacingLeft=4;spacingRight=4;overflow=hidden;rotatable=0;points=[[0,0.5],[1,0.5]];portConstraint=eastwest;" parent="6yVP0xscNu6BQEY-c9Ur-73" vertex="1">
          <mxGeometry y="26" width="160" height="26" as="geometry" />
        </mxCell>
        <mxCell id="6yVP0xscNu6BQEY-c9Ur-75" value="-title: String" style="text;strokeColor=none;fillColor=none;align=left;verticalAlign=top;spacingLeft=4;spacingRight=4;overflow=hidden;rotatable=0;points=[[0,0.5],[1,0.5]];portConstraint=eastwest;" parent="6yVP0xscNu6BQEY-c9Ur-73" vertex="1">
          <mxGeometry y="52" width="160" height="26" as="geometry" />
        </mxCell>
        <mxCell id="6yVP0xscNu6BQEY-c9Ur-76" value="-description: String" style="text;strokeColor=none;fillColor=none;align=left;verticalAlign=top;spacingLeft=4;spacingRight=4;overflow=hidden;rotatable=0;points=[[0,0.5],[1,0.5]];portConstraint=eastwest;" parent="6yVP0xscNu6BQEY-c9Ur-73" vertex="1">
          <mxGeometry y="78" width="160" height="26" as="geometry" />
        </mxCell>
        <mxCell id="pq_9ftzxwfjxtikR4yIr-10" value="-completed: bool" style="text;strokeColor=none;fillColor=none;align=left;verticalAlign=top;spacingLeft=4;spacingRight=4;overflow=hidden;rotatable=0;points=[[0,0.5],[1,0.5]];portConstraint=eastwest;" parent="6yVP0xscNu6BQEY-c9Ur-73" vertex="1">
          <mxGeometry y="104" width="160" height="26" as="geometry" />
        </mxCell>
        <mxCell id="pq_9ftzxwfjxtikR4yIr-9" value="-destroyed: bool" style="text;strokeColor=none;fillColor=none;align=left;verticalAlign=top;spacingLeft=4;spacingRight=4;overflow=hidden;rotatable=0;points=[[0,0.5],[1,0.5]];portConstraint=eastwest;" parent="6yVP0xscNu6BQEY-c9Ur-73" vertex="1">
          <mxGeometry y="130" width="160" height="26" as="geometry" />
        </mxCell>
        <mxCell id="6yVP0xscNu6BQEY-c9Ur-79" value="" style="line;strokeWidth=1;fillColor=none;align=left;verticalAlign=middle;spacingTop=-1;spacingLeft=3;spacingRight=3;rotatable=0;labelPosition=right;points=[];portConstraint=eastwest;strokeColor=inherit;" parent="6yVP0xscNu6BQEY-c9Ur-73" vertex="1">
          <mxGeometry y="156" width="160" height="8" as="geometry" />
        </mxCell>
        <mxCell id="6yVP0xscNu6BQEY-c9Ur-80" value="+Appointment()" style="text;strokeColor=none;fillColor=none;align=left;verticalAlign=top;spacingLeft=4;spacingRight=4;overflow=hidden;rotatable=0;points=[[0,0.5],[1,0.5]];portConstraint=eastwest;" parent="6yVP0xscNu6BQEY-c9Ur-73" vertex="1">
          <mxGeometry y="164" width="160" height="26" as="geometry" />
        </mxCell>
        <mxCell id="6yVP0xscNu6BQEY-c9Ur-81" value="+setTitle() void" style="text;strokeColor=none;fillColor=none;align=left;verticalAlign=top;spacingLeft=4;spacingRight=4;overflow=hidden;rotatable=0;points=[[0,0.5],[1,0.5]];portConstraint=eastwest;" parent="6yVP0xscNu6BQEY-c9Ur-73" vertex="1">
          <mxGeometry y="190" width="160" height="26" as="geometry" />
        </mxCell>
        <mxCell id="6yVP0xscNu6BQEY-c9Ur-82" value="+setDescription() void" style="text;strokeColor=none;fillColor=none;align=left;verticalAlign=top;spacingLeft=4;spacingRight=4;overflow=hidden;rotatable=0;points=[[0,0.5],[1,0.5]];portConstraint=eastwest;" parent="6yVP0xscNu6BQEY-c9Ur-73" vertex="1">
          <mxGeometry y="216" width="160" height="26" as="geometry" />
        </mxCell>
        <mxCell id="pq_9ftzxwfjxtikR4yIr-15" value="+setCompleted() void" style="text;strokeColor=none;fillColor=none;align=left;verticalAlign=top;spacingLeft=4;spacingRight=4;overflow=hidden;rotatable=0;points=[[0,0.5],[1,0.5]];portConstraint=eastwest;" parent="6yVP0xscNu6BQEY-c9Ur-73" vertex="1">
          <mxGeometry y="242" width="160" height="26" as="geometry" />
        </mxCell>
        <mxCell id="pq_9ftzxwfjxtikR4yIr-16" value="+destroy() void" style="text;strokeColor=none;fillColor=none;align=left;verticalAlign=top;spacingLeft=4;spacingRight=4;overflow=hidden;rotatable=0;points=[[0,0.5],[1,0.5]];portConstraint=eastwest;" parent="6yVP0xscNu6BQEY-c9Ur-73" vertex="1">
          <mxGeometry y="268" width="160" height="26" as="geometry" />
        </mxCell>
        <mxCell id="6yVP0xscNu6BQEY-c9Ur-148" value="" style="edgeStyle=orthogonalEdgeStyle;rounded=0;orthogonalLoop=1;jettySize=auto;html=1;" parent="1" source="6yVP0xscNu6BQEY-c9Ur-102" edge="1">
          <mxGeometry relative="1" as="geometry">
            <mxPoint x="204" y="480" as="targetPoint" />
          </mxGeometry>
        </mxCell>
        <mxCell id="6yVP0xscNu6BQEY-c9Ur-102" value="Duration" style="swimlane;fontStyle=1;align=center;verticalAlign=top;childLayout=stackLayout;horizontal=1;startSize=26;horizontalStack=0;resizeParent=1;resizeParentMax=0;resizeLast=0;collapsible=1;marginBottom=0;" parent="1" vertex="1">
          <mxGeometry x="24" y="560" width="190" height="216" as="geometry" />
        </mxCell>
        <mxCell id="6yVP0xscNu6BQEY-c9Ur-114" value="-wholeDay: bool" style="text;strokeColor=none;fillColor=none;align=left;verticalAlign=top;spacingLeft=4;spacingRight=4;overflow=hidden;rotatable=0;points=[[0,0.5],[1,0.5]];portConstraint=eastwest;" parent="6yVP0xscNu6BQEY-c9Ur-102" vertex="1">
          <mxGeometry y="26" width="190" height="26" as="geometry" />
        </mxCell>
        <mxCell id="6yVP0xscNu6BQEY-c9Ur-99" value="-startDateTime:Â LocalDateTime" style="text;strokeColor=none;fillColor=none;align=left;verticalAlign=top;spacingLeft=4;spacingRight=4;overflow=hidden;rotatable=0;points=[[0,0.5],[1,0.5]];portConstraint=eastwest;" parent="6yVP0xscNu6BQEY-c9Ur-102" vertex="1">
          <mxGeometry y="52" width="190" height="26" as="geometry" />
        </mxCell>
        <mxCell id="6yVP0xscNu6BQEY-c9Ur-100" value="-endingDateTime:Â LocalDateTime" style="text;strokeColor=none;fillColor=none;align=left;verticalAlign=top;spacingLeft=4;spacingRight=4;overflow=hidden;rotatable=0;points=[[0,0.5],[1,0.5]];portConstraint=eastwest;" parent="6yVP0xscNu6BQEY-c9Ur-102" vertex="1">
          <mxGeometry y="78" width="190" height="26" as="geometry" />
        </mxCell>
        <mxCell id="6yVP0xscNu6BQEY-c9Ur-108" value="" style="line;strokeWidth=1;fillColor=none;align=left;verticalAlign=middle;spacingTop=-1;spacingLeft=3;spacingRight=3;rotatable=0;labelPosition=right;points=[];portConstraint=eastwest;strokeColor=inherit;" parent="6yVP0xscNu6BQEY-c9Ur-102" vertex="1">
          <mxGeometry y="104" width="190" height="8" as="geometry" />
        </mxCell>
        <mxCell id="6yVP0xscNu6BQEY-c9Ur-109" value="+Duration()" style="text;strokeColor=none;fillColor=none;align=left;verticalAlign=top;spacingLeft=4;spacingRight=4;overflow=hidden;rotatable=0;points=[[0,0.5],[1,0.5]];portConstraint=eastwest;" parent="6yVP0xscNu6BQEY-c9Ur-102" vertex="1">
          <mxGeometry y="112" width="190" height="26" as="geometry" />
        </mxCell>
        <mxCell id="6yVP0xscNu6BQEY-c9Ur-115" value="+setWholeDay() void" style="text;strokeColor=none;fillColor=none;align=left;verticalAlign=top;spacingLeft=4;spacingRight=4;overflow=hidden;rotatable=0;points=[[0,0.5],[1,0.5]];portConstraint=eastwest;" parent="6yVP0xscNu6BQEY-c9Ur-102" vertex="1">
          <mxGeometry y="138" width="190" height="26" as="geometry" />
        </mxCell>
        <mxCell id="6yVP0xscNu6BQEY-c9Ur-110" value="+setStartDateTime() void" style="text;strokeColor=none;fillColor=none;align=left;verticalAlign=top;spacingLeft=4;spacingRight=4;overflow=hidden;rotatable=0;points=[[0,0.5],[1,0.5]];portConstraint=eastwest;" parent="6yVP0xscNu6BQEY-c9Ur-102" vertex="1">
          <mxGeometry y="164" width="190" height="26" as="geometry" />
        </mxCell>
        <mxCell id="6yVP0xscNu6BQEY-c9Ur-111" value="+setEndingDateTime() void" style="text;strokeColor=none;fillColor=none;align=left;verticalAlign=top;spacingLeft=4;spacingRight=4;overflow=hidden;rotatable=0;points=[[0,0.5],[1,0.5]];portConstraint=eastwest;" parent="6yVP0xscNu6BQEY-c9Ur-102" vertex="1">
          <mxGeometry y="190" width="190" height="26" as="geometry" />
        </mxCell>
        <mxCell id="6yVP0xscNu6BQEY-c9Ur-149" value="" style="edgeStyle=orthogonalEdgeStyle;rounded=0;orthogonalLoop=1;jettySize=auto;html=1;" parent="1" source="6yVP0xscNu6BQEY-c9Ur-117" target="6yVP0xscNu6BQEY-c9Ur-72" edge="1">
          <mxGeometry relative="1" as="geometry">
            <Array as="points">
              <mxPoint x="694" y="599" />
            </Array>
          </mxGeometry>
        </mxCell>
        <mxCell id="6yVP0xscNu6BQEY-c9Ur-117" value="Expiration" style="swimlane;fontStyle=1;align=center;verticalAlign=top;childLayout=stackLayout;horizontal=1;startSize=26;horizontalStack=0;resizeParent=1;resizeParentMax=0;resizeLast=0;collapsible=1;marginBottom=0;" parent="1" vertex="1">
          <mxGeometry x="574" y="481" width="236" height="216" as="geometry" />
        </mxCell>
        <mxCell id="6yVP0xscNu6BQEY-c9Ur-118" value="-wholeDay: bool" style="text;strokeColor=none;fillColor=none;align=left;verticalAlign=top;spacingLeft=4;spacingRight=4;overflow=hidden;rotatable=0;points=[[0,0.5],[1,0.5]];portConstraint=eastwest;" parent="6yVP0xscNu6BQEY-c9Ur-117" vertex="1">
          <mxGeometry y="26" width="236" height="26" as="geometry" />
        </mxCell>
        <mxCell id="6yVP0xscNu6BQEY-c9Ur-121" value="-expirationDateTime:Â LocalDateTime" style="text;strokeColor=none;fillColor=none;align=left;verticalAlign=top;spacingLeft=4;spacingRight=4;overflow=hidden;rotatable=0;points=[[0,0.5],[1,0.5]];portConstraint=eastwest;" parent="6yVP0xscNu6BQEY-c9Ur-117" vertex="1">
          <mxGeometry y="52" width="236" height="26" as="geometry" />
        </mxCell>
        <mxCell id="6yVP0xscNu6BQEY-c9Ur-122" value="" style="line;strokeWidth=1;fillColor=none;align=left;verticalAlign=middle;spacingTop=-1;spacingLeft=3;spacingRight=3;rotatable=0;labelPosition=right;points=[];portConstraint=eastwest;strokeColor=inherit;" parent="6yVP0xscNu6BQEY-c9Ur-117" vertex="1">
          <mxGeometry y="78" width="236" height="8" as="geometry" />
        </mxCell>
        <mxCell id="6yVP0xscNu6BQEY-c9Ur-123" value="+Expiration()" style="text;strokeColor=none;fillColor=none;align=left;verticalAlign=top;spacingLeft=4;spacingRight=4;overflow=hidden;rotatable=0;points=[[0,0.5],[1,0.5]];portConstraint=eastwest;" parent="6yVP0xscNu6BQEY-c9Ur-117" vertex="1">
          <mxGeometry y="86" width="236" height="26" as="geometry" />
        </mxCell>
        <mxCell id="6yVP0xscNu6BQEY-c9Ur-126" value="+setExpirationDateTime() void" style="text;strokeColor=none;fillColor=none;align=left;verticalAlign=top;spacingLeft=4;spacingRight=4;overflow=hidden;rotatable=0;points=[[0,0.5],[1,0.5]];portConstraint=eastwest;" parent="6yVP0xscNu6BQEY-c9Ur-117" vertex="1">
          <mxGeometry y="112" width="236" height="26" as="geometry" />
        </mxCell>
        <mxCell id="OCeLNcQzXR1N7st4v14w-1" value="+getExpirationDateTime() LocalDateTime" style="text;strokeColor=none;fillColor=none;align=left;verticalAlign=top;spacingLeft=4;spacingRight=4;overflow=hidden;rotatable=0;points=[[0,0.5],[1,0.5]];portConstraint=eastwest;" vertex="1" parent="6yVP0xscNu6BQEY-c9Ur-117">
          <mxGeometry y="138" width="236" height="26" as="geometry" />
        </mxCell>
        <mxCell id="OCeLNcQzXR1N7st4v14w-2" value="+setWholeDay() void" style="text;strokeColor=none;fillColor=none;align=left;verticalAlign=top;spacingLeft=4;spacingRight=4;overflow=hidden;rotatable=0;points=[[0,0.5],[1,0.5]];portConstraint=eastwest;" vertex="1" parent="6yVP0xscNu6BQEY-c9Ur-117">
          <mxGeometry y="164" width="236" height="26" as="geometry" />
        </mxCell>
        <mxCell id="OCeLNcQzXR1N7st4v14w-3" value="+isWholeDay() bool" style="text;strokeColor=none;fillColor=none;align=left;verticalAlign=top;spacingLeft=4;spacingRight=4;overflow=hidden;rotatable=0;points=[[0,0.5],[1,0.5]];portConstraint=eastwest;" vertex="1" parent="6yVP0xscNu6BQEY-c9Ur-117">
          <mxGeometry y="190" width="236" height="26" as="geometry" />
        </mxCell>
        <mxCell id="pq_9ftzxwfjxtikR4yIr-19" value="" style="edgeStyle=orthogonalEdgeStyle;rounded=0;orthogonalLoop=1;jettySize=auto;html=1;" parent="1" source="MpDh-TRCK5XOlLjy6D3E-1" target="6yVP0xscNu6BQEY-c9Ur-15" edge="1">
          <mxGeometry relative="1" as="geometry" />
        </mxCell>
        <mxCell id="MpDh-TRCK5XOlLjy6D3E-1" value="Alarm" style="swimlane;fontStyle=1;align=center;verticalAlign=top;childLayout=stackLayout;horizontal=1;startSize=26;horizontalStack=0;resizeParent=1;resizeParentMax=0;resizeLast=0;collapsible=1;marginBottom=0;" parent="1" vertex="1">
          <mxGeometry x="10" y="10" width="200" height="216" as="geometry" />
        </mxCell>
        <mxCell id="MpDh-TRCK5XOlLjy6D3E-2" value="-id: int&#xa;" style="text;strokeColor=none;fillColor=none;align=left;verticalAlign=top;spacingLeft=4;spacingRight=4;overflow=hidden;rotatable=0;points=[[0,0.5],[1,0.5]];portConstraint=eastwest;" parent="MpDh-TRCK5XOlLjy6D3E-1" vertex="1">
          <mxGeometry y="26" width="200" height="26" as="geometry" />
        </mxCell>
        <mxCell id="MpDh-TRCK5XOlLjy6D3E-9" value="-targetId: int" style="text;strokeColor=none;fillColor=none;align=left;verticalAlign=top;spacingLeft=4;spacingRight=4;overflow=hidden;rotatable=0;points=[[0,0.5],[1,0.5]];portConstraint=eastwest;" parent="MpDh-TRCK5XOlLjy6D3E-1" vertex="1">
          <mxGeometry y="52" width="200" height="26" as="geometry" />
        </mxCell>
        <mxCell id="MpDh-TRCK5XOlLjy6D3E-11" value="-ringDateTime: LocalDateTime" style="text;strokeColor=none;fillColor=none;align=left;verticalAlign=top;spacingLeft=4;spacingRight=4;overflow=hidden;rotatable=0;points=[[0,0.5],[1,0.5]];portConstraint=eastwest;" parent="MpDh-TRCK5XOlLjy6D3E-1" vertex="1">
          <mxGeometry y="78" width="200" height="26" as="geometry" />
        </mxCell>
        <mxCell id="MpDh-TRCK5XOlLjy6D3E-12" value="-typeOfAlarm: int/enum" style="text;strokeColor=none;fillColor=none;align=left;verticalAlign=top;spacingLeft=4;spacingRight=4;overflow=hidden;rotatable=0;points=[[0,0.5],[1,0.5]];portConstraint=eastwest;" parent="MpDh-TRCK5XOlLjy6D3E-1" vertex="1">
          <mxGeometry y="104" width="200" height="26" as="geometry" />
        </mxCell>
        <mxCell id="MpDh-TRCK5XOlLjy6D3E-3" value="" style="line;strokeWidth=1;fillColor=none;align=left;verticalAlign=middle;spacingTop=-1;spacingLeft=3;spacingRight=3;rotatable=0;labelPosition=right;points=[];portConstraint=eastwest;strokeColor=inherit;" parent="MpDh-TRCK5XOlLjy6D3E-1" vertex="1">
          <mxGeometry y="130" width="200" height="8" as="geometry" />
        </mxCell>
        <mxCell id="MpDh-TRCK5XOlLjy6D3E-4" value="+Alarm()" style="text;strokeColor=none;fillColor=none;align=left;verticalAlign=top;spacingLeft=4;spacingRight=4;overflow=hidden;rotatable=0;points=[[0,0.5],[1,0.5]];portConstraint=eastwest;" parent="MpDh-TRCK5XOlLjy6D3E-1" vertex="1">
          <mxGeometry y="138" width="200" height="26" as="geometry" />
        </mxCell>
        <mxCell id="MpDh-TRCK5XOlLjy6D3E-5" value="+setTypeOfAlarm() void" style="text;strokeColor=none;fillColor=none;align=left;verticalAlign=top;spacingLeft=4;spacingRight=4;overflow=hidden;rotatable=0;points=[[0,0.5],[1,0.5]];portConstraint=eastwest;" parent="MpDh-TRCK5XOlLjy6D3E-1" vertex="1">
          <mxGeometry y="164" width="200" height="26" as="geometry" />
        </mxCell>
        <mxCell id="MpDh-TRCK5XOlLjy6D3E-6" value="+setRingDateTime() void" style="text;strokeColor=none;fillColor=none;align=left;verticalAlign=top;spacingLeft=4;spacingRight=4;overflow=hidden;rotatable=0;points=[[0,0.5],[1,0.5]];portConstraint=eastwest;" parent="MpDh-TRCK5XOlLjy6D3E-1" vertex="1">
          <mxGeometry y="190" width="200" height="26" as="geometry" />
        </mxCell>
      </root>
    </mxGraphModel>
  </diagram>
</mxfile>
